<svg xmlns="http://www.w3.org/2000/svg" data-name="Layer 1" viewBox="0 0 101 101"><defs/><path d="M79.5 24h7a1.5 1.5 0 000-3h-10a1.5 1.5 0 00-1.5 1.5v10a1.5 1.5 0 003 0v-5.69A36.62 36.62 0 0187 51a37 37 0 11-37-37 1.5 1.5 0 000-3 40 40 0 1040 40 39.59 39.59 0 00-10.5-27z"/><path d="M23 51.5A27.5 27.5 0 1050.5 24 27.53 27.53 0 0023 51.5zm52 0A24.5 24.5 0 1150.5 27 24.53 24.53 0 0175 51.5z"/><path d="M49 34.5v17a1.5 1.5 0 002.56 1.06l13-13a1.5 1.5 0 00-2.12-2.12L52 47.88V34.5a1.5 1.5 0 00-3 0z"/></svg>