<svg xmlns="http://www.w3.org/2000/svg" viewBox="0 0 100.353 100.352"><defs/><path d="M41.76 45.383c-7.691 0-13.949 6.258-13.949 13.949S34.068 73.28 41.76 73.28s13.949-6.257 13.949-13.948-6.258-13.949-13.949-13.949zm0 24.898c-6.037 0-10.949-4.911-10.949-10.948s4.912-10.949 10.949-10.949c6.038 0 10.949 4.912 10.949 10.949S47.797 70.281 41.76 70.281zM12.399 45.384c-.829 0-1.5.671-1.5 1.5V71.78c0 .828.671 1.5 1.5 1.5s1.5-.672 1.5-1.5V46.884c0-.829-.671-1.5-1.5-1.5zM70.648 45.384c-.828 0-1.5.671-1.5 1.5V71.78c0 .828.672 1.5 1.5 1.5s1.5-.672 1.5-1.5V46.884c0-.829-.671-1.5-1.5-1.5z"/><path d="M95.287 19.142H21.869c-.829 0-1.5.671-1.5 1.5v7.419h-6.72c-.829 0-1.5.671-1.5 1.5v8.248H4.714c-.829 0-1.5.671-1.5 1.5v40.047c0 .828.671 1.5 1.5 1.5h73.419c.828 0 1.5-.672 1.5-1.5v-8.248h7.436c.828 0 1.5-.672 1.5-1.5v-7.419h6.719c.828 0 1.5-.672 1.5-1.5V20.642c-.001-.829-.673-1.5-1.501-1.5zM6.214 77.856V40.809h70.419v28.789c0 .003-.001.006-.001.01s.001.006.001.01v8.238H6.214zm79.354-9.748h-5.936V39.309c0-.829-.672-1.5-1.5-1.5H15.149v-6.748h70.419v37.047zm8.219-8.919h-5.219V29.561c0-.829-.672-1.5-1.5-1.5H23.369v-5.919h70.418v37.047z"/></svg>