<svg xmlns="http://www.w3.org/2000/svg" viewBox="0 0 101 101"><defs/><path d="M91.9 58.3c-2.6-2.7-6.2-4.2-9.9-4.3V33.8c0-.5-.3-1-.7-1.2L44.7 8.1c-.5-.3-1.2-.3-1.7 0L6.7 32.4c-.5.3-.7.7-.7 1.2v34.1c0 .5.2 1 .7 1.3L44 93.4c.5.3 1.2.3 1.7 0l24-16.7.3-.3 10.1 17.8c.3.5.7.8 1.3.8.5 0 1-.3 1.3-.7l11.4-18c0-.1.1-.2.1-.2 3.4-5.7 2.5-13-2.3-17.8zm-47.1-2l-16.6-11 33.2-22.4 16.9 11.3-33.5 22.1zm-1-45.1l14.9 9.9-33.1 22.4-15.1-10 33.3-22.3zM9 36l34 22.7v30.5L9 66.9V36zm37 53.5V59.1l33-21.8v17c-6.8 1.3-11.8 7.3-11.8 14.2 0 1.9.4 3.8 1.3 5.5-.1 0-.3.1-.4.2L46 89.5zm47.2-20.9c0 2.2-.6 4.3-1.8 6.1 0 .1-.1.2-.1.2l-9.8 15.7L72.1 74c-.1-.2-.2-.5-.4-.6-.7-.6-1.4-2.3-1.4-4.8 0-6.4 5.2-11.5 11.5-11.5 6.2 0 11.4 5.1 11.4 11.5z"/><path d="M81.7 61.5c-3.5 0-6.3 2.8-6.3 6.3s2.8 6.3 6.3 6.4c3.5-.1 6.2-3.1 6.1-6.6-.2-3.3-2.8-5.9-6.1-6.1zm3.3 6.4c0 1.8-1.5 3.3-3.3 3.3-.9 0-1.7-.4-2.4-1-.6-.6-1-1.5-1-2.4 0-1.8 1.5-3.3 3.3-3.3 1.9 0 3.4 1.5 3.4 3.4z"/></svg>