<svg xmlns="http://www.w3.org/2000/svg" viewBox="0 0 100.353 100.353"><defs/><path d="M50.465 57.735c-19.501 0-35.367 15.867-35.367 35.371 0 .828.671 1.5 1.5 1.5h67.734c.828 0 1.5-.672 1.5-1.5 0-19.504-15.865-35.371-35.367-35.371zM18.132 91.606c.786-17.156 14.988-30.871 32.333-30.871S82.013 74.45 82.798 91.606H18.132zM49.876 13.379c-11.228 0-20.363 9.135-20.363 20.363s9.135 20.363 20.363 20.363c11.229 0 20.363-9.135 20.363-20.363s-9.135-20.363-20.363-20.363zm0 37.726c-9.574 0-17.363-7.789-17.363-17.363s7.789-17.363 17.363-17.363 17.363 7.789 17.363 17.363-7.789 17.363-17.363 17.363z"/><path d="M25.138 44.889c.829 0 1.5-.671 1.5-1.5V23.977c0-.096-.011-.189-.028-.28 4.019-9.319 13.054-15.304 23.267-15.304 10.396 0 19.582 6.202 23.486 15.816v19.067c-1.258 3.098-3.085 5.884-5.45 8.28-.582.59-.576 1.539.014 2.121.292.289.673.433 1.054.433.387 0 .774-.149 1.067-.446 2.52-2.553 4.495-5.504 5.893-8.774h1.054c6.179 0 11.206-5.027 11.206-11.206s-5.027-11.206-11.206-11.206h-1.118c-4.503-10.403-14.596-17.084-26-17.084-11.41 0-21.504 6.68-26.005 17.084h-.866c-6.179 0-11.206 5.027-11.206 11.206S16.827 44.89 23.006 44.89h2.132zm60.063-11.206c0 4.525-3.682 8.206-8.206 8.206h-.632V25.477h.632c4.525 0 8.206 3.681 8.206 8.206zm-70.401 0c0-4.525 3.681-8.206 8.206-8.206h.632v16.412h-.632c-4.525 0-8.206-3.681-8.206-8.206z"/></svg>